<?xml version="1.0" encoding="iso-8859-1"?>
<!-- Generator: Adobe Illustrator 19.0.0, SVG Export Plug-In . SVG Version: 6.00 Build 0)  -->
<svg version="1.1" id="Capa_1" xmlns="http://www.w3.org/2000/svg" xmlns:xlink="http://www.w3.org/1999/xlink" x="0px" y="0px"
	 viewBox="0 0 512.001 512.001" style="enable-background:new 0 0 512.001 512.001;" xml:space="preserve">
<g>
	<path style="fill:#D4F582;" d="M49.972,251.836c-1.822,0-3.661-0.594-5.198-1.822C42.952,248.549,0,213.578,0,160.205
		c0-44.587,18.32-63.419,19.101-64.2c3.254-3.254,8.525-3.254,11.779,0s3.254,8.525,0,11.779
		c-0.073,0.081-14.22,15.359-14.22,52.421c0,45.449,38.136,76.492,38.527,76.793c3.587,2.88,4.173,8.119,1.302,11.714
		C54.837,250.762,52.421,251.836,49.972,251.836z"/>
	<path style="fill:#D4F582;" d="M49.989,251.836c-3.197,0-6.239-1.838-7.622-4.946c-34.972-78.696-0.382-123.349,1.106-125.211
		c2.888-3.571,8.11-4.173,11.714-1.302c3.579,2.872,4.165,8.086,1.326,11.682c-1.31,1.676-29.497,39.259,1.082,108.063
		c1.863,4.206-0.024,9.127-4.23,10.998C52.266,251.608,51.119,251.836,49.989,251.836z"/>
</g>
<path style="fill:#AFD755;" d="M435.246,292.792l30.534,27.001c5.989,5.296,4.798,14.842-2.214,18.681
	c-77.638,42.503-250.377,52.236-379.571,20.264v-91.631L435.246,292.792z"/>
<path style="fill:#8CC846;" d="M465.216,321.526c0.277-0.85,0.288-0.883,0.565-1.733l-30.534-27.001L83.995,267.108v91.631
	c11.894,2.943,24.16,5.527,36.684,7.77c15.307-17.982,26.832-35.995,35.039-50.763c3.427-6.168,10.231-9.488,17.199-8.382
	c64.89,10.304,138.693,15.507,220.43,15.507C420.029,322.87,444.405,322.29,465.216,321.526z"/>
<path style="fill:#D4F582;" d="M66.641,239.341l34.362,36.444c151.164,38.263,334.374,31.18,405.621,27.127
	c5.621-0.32,7.419-7.73,2.559-10.572C437.546,250.448,275.658,177.214,66.641,239.341z"/>
<path style="fill:#AFD755;" d="M108.291,293.486c0,41.405-24.99,83.301-49.98,83.301S8.33,334.892,8.33,293.486
	s22.377-58.311,49.98-58.311S108.291,252.081,108.291,293.486z"/>
<path style="fill:#D4F582;" d="M490.866,401.777h-46.661c-3.482,0-6.622-2.196-7.818-5.467l-76.972-210.762l-10.141,20.798
	l71.462,195.674c3.587,9.819,13.016,16.416,23.469,16.416h46.661c4.604,0,8.33-3.726,8.33-8.33S495.47,401.777,490.866,401.777z"/>
<path style="fill:#BEE86E;" d="M331.589,180.971L173.961,360.094c-4.107,4.667-3.219,11.89,1.97,15.314
	c14.736,9.721,43.95,23.819,65.641,1.38c9.932-10.274,75.071-109.618,116.156-172.785c3.427-5.27,4.172-11.836,2.016-17.741l0,0
	C355.407,174.386,339.941,171.48,331.589,180.971z"/>
<path style="fill:#4B3F4E;" d="M62.476,318.477L62.476,318.477c-11.501,0-20.825-9.324-20.825-20.825v-8.33
	c0-11.501,9.324-20.825,20.825-20.825l0,0c11.501,0,20.825,9.324,20.825,20.825v8.33C83.301,309.153,73.977,318.477,62.476,318.477z
	"/>
<path style="fill:#5D5360;" d="M66.641,268.916v24.57c0,4.6,3.729,8.33,8.33,8.33s8.33-3.73,8.33-8.33v-4.165
	C83.301,279.246,76.146,270.846,66.641,268.916z"/>
<circle style="fill:#FFFFFF;" cx="66.64" cy="285.151" r="8.33"/>
<path style="fill:#8CC846;" d="M24.99,271.926c0-11.501,1.966-21.172,5.428-29.248C17.095,251.261,8.33,267.575,8.33,293.486
	c0,41.405,24.99,83.301,49.98,83.301c9.783,0,19.543-6.477,27.827-16.776C55.35,358.78,24.99,315.144,24.99,271.926z"/>
<g>
	<path style="fill:#BEE86E;" d="M78.469,418.437H33.32c-4.604,0-8.33-3.726-8.33-8.33s3.726-8.33,8.33-8.33h45.148l30.921-54.113
		c2.278-3.994,7.362-5.402,11.364-3.099c3.994,2.278,5.385,7.37,3.099,11.364l-30.921,54.113
		C89.979,415.216,84.44,418.437,78.469,418.437z"/>
	<path style="fill:#BEE86E;" d="M133.281,418.437h-16.66c-4.604,0-8.33-3.726-8.33-8.33s3.726-8.33,8.33-8.33h16.66v-49.98
		c0-4.604,3.726-8.33,8.33-8.33s8.33,3.726,8.33,8.33v49.98C149.941,410.962,142.465,418.437,133.281,418.437z"/>
</g>
<path style="fill:#AFD755;" d="M221.829,215.412c-14.839,21.89-76.274,44.624-123.661,57.367l2.834,3.006
	c8.764,2.218,17.654,4.251,26.605,6.174c88.173-26.599,108.17-55.169,112.663-66.461
	C234.194,215.364,228.045,215.337,221.829,215.412z"/>
<g>
</g>
<g>
</g>
<g>
</g>
<g>
</g>
<g>
</g>
<g>
</g>
<g>
</g>
<g>
</g>
<g>
</g>
<g>
</g>
<g>
</g>
<g>
</g>
<g>
</g>
<g>
</g>
<g>
</g>
</svg>
